<svg width="24" height="24" viewBox="0 0 24 24" fill="none" xmlns="http://www.w3.org/2000/svg">
<g clip-path="url(#clip0_1875_14)">
<path d="M12 1.2C9.86398 1.2 7.7759 1.8334 5.99986 3.02012C4.22381 4.20685 2.83955 5.89357 2.02212 7.86702C1.20469 9.84045 0.990816 12.012 1.40754 14.107C1.82425 16.2019 2.85286 18.1264 4.36326 19.6368C5.87366 21.1471 7.79804 22.1758 9.89304 22.5925C11.988 23.0092 14.1595 22.7953 16.1331 21.9779C18.1065 21.1604 19.7932 19.7762 20.9799 18.0001C22.1667 16.2241 22.8 14.136 22.8 12C22.8 9.13566 21.6622 6.38864 19.6368 4.36325C17.6113 2.33785 14.8644 1.2 12 1.2ZM2.55001 12C2.55338 10.1913 3.07577 8.42148 4.05512 6.90083C5.03448 5.38016 6.42967 4.17252 8.07502 3.42127C9.72037 2.67002 11.5467 2.40674 13.3373 2.6627C15.1278 2.91866 16.8073 3.6831 18.1763 4.86524L4.86527 18.1763C3.37304 16.4646 2.55066 14.2708 2.55001 12ZM12 21.45C9.72924 21.4494 7.53541 20.6269 5.82377 19.1347L19.1347 5.82374C20.3169 7.19271 21.0814 8.87219 21.3373 10.6627C21.5933 12.4532 21.33 14.2796 20.5787 15.925C19.8275 17.5704 18.6198 18.9655 17.0992 19.9448C15.5785 20.9243 13.8088 21.4466 12 21.45Z" fill="white" stroke="white" stroke-width="1.2"/>
</g>
<defs>
<clipPath id="clip0_1875_14">
<rect width="24" height="24" fill="white"/>
</clipPath>
</defs>
</svg>
