<svg width="19" height="17" viewBox="0 0 19 17" fill="none" xmlns="http://www.w3.org/2000/svg">
<path d="M15.1874 11.8381C17.1228 10.3511 18.19 8.66363 18.19 8.66363C18.19 8.66363 14.7794 3.27077 9.095 3.27077C7.94064 3.27077 6.88005 3.49317 5.92274 3.84764L6.79913 4.6035C7.51455 4.38187 8.28146 4.25129 9.095 4.25129C11.5045 4.25129 13.5049 5.39671 14.9702 6.66053C15.6931 7.28395 16.2549 7.91052 16.6356 8.38165C16.7183 8.48398 16.7921 8.57853 16.8568 8.66363C16.7921 8.74873 16.7183 8.84329 16.6356 8.94561C16.2549 9.41674 15.6931 10.0433 14.9702 10.6667C14.7829 10.8283 14.5867 10.988 14.3821 11.1436L15.1874 11.8381Z" fill="#63697D"/>
<path d="M12.8438 9.81687C12.9929 9.45644 13.0741 9.06821 13.0741 8.66363C13.0741 6.76829 11.2926 5.23181 9.095 5.23181C8.62591 5.23181 8.17577 5.30182 7.75787 5.43039L8.69275 6.23669C8.82416 6.22063 8.95845 6.21233 9.095 6.21233C10.6647 6.21233 11.9372 7.30982 11.9372 8.66363C11.9372 8.7814 11.9276 8.89723 11.9089 9.01056L12.8438 9.81687Z" fill="#63697D"/>
<path d="M9.49728 11.0906L10.4322 11.8969C10.0143 12.0254 9.56411 12.0955 9.095 12.0955C6.89742 12.0955 5.11594 10.559 5.11594 8.66363C5.11594 8.25904 5.19711 7.87081 5.34619 7.51038L6.28106 8.31668C6.26244 8.43002 6.25281 8.54586 6.25281 8.66363C6.25281 10.0175 7.5253 11.1149 9.095 11.1149C9.23156 11.1149 9.36586 11.1066 9.49728 11.0906Z" fill="#63697D"/>
<path d="M3.8079 6.18365C3.60327 6.33924 3.40714 6.49892 3.21975 6.66053C2.49693 7.28395 1.93514 7.91052 1.55442 8.38165C1.47173 8.48398 1.39793 8.57853 1.33321 8.66363C1.39793 8.74873 1.47173 8.84329 1.55442 8.94561C1.93514 9.41674 2.49693 10.0433 3.21975 10.6667C4.6851 11.9306 6.68553 13.076 9.095 13.076C9.90855 13.076 10.6755 12.9454 11.3909 12.7238L12.2673 13.4796C11.31 13.8341 10.2494 14.0565 9.095 14.0565C3.41062 14.0565 0 8.66363 0 8.66363C0 8.66363 1.0672 6.97618 3.00262 5.48912L3.8079 6.18365Z" fill="#63697D"/>
<path d="M15.5143 14.8934L1.8718 3.12717L2.6757 2.43384L16.3182 14.2001L15.5143 14.8934Z" fill="#63697D"/>
</svg>
