<svg width="20" height="20" viewBox="0 0 20 20" fill="none" xmlns="http://www.w3.org/2000/svg">
<path d="M10 7.14417C8.27711 7.14417 6.87551 8.64943 6.87551 10.5C6.87551 12.3506 8.27711 13.8558 10 13.8558C11.7229 13.8558 13.1245 12.3503 13.1245 10.5C13.1245 8.64967 11.7229 7.14417 10 7.14417ZM10 12.6535C8.89439 12.6535 7.995 11.6874 7.995 10.5C7.995 9.31262 8.89462 8.34646 10 8.34646C11.1054 8.34646 12.005 9.31262 12.005 10.5C12.005 11.6874 11.1056 12.6535 10 12.6535ZM18.7692 10.1513C16.5998 6.87774 13.4035 5 10 5C6.59654 5 3.40018 6.87774 1.23084 10.1513L1 10.5L1.23084 10.8484C3.39995 14.1223 6.59631 16 10 16C13.4037 16 16.6 14.1223 18.7692 10.8484L19 10.5L18.7692 10.1513ZM10 14.7977C7.08463 14.7977 4.32913 13.2371 2.38234 10.5C4.32913 7.76286 7.08486 6.20229 10 6.20229C12.9151 6.20229 15.6709 7.76286 17.6177 10.5C15.6709 13.2371 12.9154 14.7977 10 14.7977Z" fill="#474F69"/>
</svg>
